<?xml version="1.0" encoding="utf-8"?>
<!-- Generator: Adobe Illustrator 16.0.0, SVG Export Plug-In . SVG Version: 6.00 Build 0)  -->
<!DOCTYPE svg PUBLIC "-//W3C//DTD SVG 1.1//EN" "http://www.w3.org/Graphics/SVG/1.1/DTD/svg11.dtd">
<svg version="1.1" id="Layer_1" xmlns="http://www.w3.org/2000/svg" xmlns:xlink="http://www.w3.org/1999/xlink" x="0px" y="0px"
	 width="1920px" height="1080px" viewBox="0 0 1920 1080" enable-background="new 0 0 1920 1080" xml:space="preserve">
<rect x="640.607" y="451.435" fill="none" width="1189.439" height="142.493"/>
<text transform="matrix(1 0 0 1 640.6074 558.2813)"><tspan x="0" y="0" fill="#285B85" font-family="'Montserrat-SemiBold'" font-size="144">FINANCIAL</tspan><tspan x="800.77" y="0" font-family="'Montserrat-SemiBold'" font-size="144"> </tspan><tspan x="834.465" y="0" fill="#86C773" font-family="'Montserrat-SemiBold'" font-size="144">DIET</tspan></text>
<circle fill="none" stroke="#85C773" stroke-width="10" stroke-miterlimit="10" cx="349.038" cy="517.103" r="132.369"/>
<circle fill="none" stroke="#85C773" stroke-width="10" stroke-miterlimit="10" cx="349.038" cy="517.102" r="112.12"/>
<path fill-rule="evenodd" clip-rule="evenodd" fill="#275B85" d="M392.362,451.14c1.795,1.022,2.224,2.66,2.181,4.588
	c-0.061,2.7-0.004,5.402-0.018,8.102c-0.014,3.06-1.144,4.208-4.215,4.216c-6.892,0.017-13.782,0.005-20.674,0.006
	c-0.554,0-1.109,0-1.905,0c0.281,0.506,0.44,0.857,0.656,1.167c2.543,3.62,4.309,7.587,5.252,11.902
	c0.25,1.145,0.716,1.561,1.945,1.541c4.888-0.08,9.777-0.036,14.667-0.031c3.462,0.003,4.425,0.953,4.434,4.36
	c0.006,2.747,0.008,5.495-0.001,8.242c-0.01,3.278-0.99,4.268-4.228,4.271c-4.936,0.005-9.871,0.024-14.807-0.019
	c-0.962-0.008-1.336,0.224-1.536,1.25c-2.949,15.143-12.151,24.971-26.34,30.25c-4.567,1.699-9.433,2.6-14.157,3.866
	c0.408,0.461,1.002,1.155,1.621,1.827c15.46,16.79,29.952,34.407,44.435,52.03c1.659,2.02,1.181,3.938-1.283,5.516
	c-7.359,0-14.718,0-22.078,0c-0.719-0.703-1.504-1.35-2.147-2.115c-16.095-19.189-32.3-38.282-49.396-56.598
	c-0.942-1.01-1.393-2.126-1.377-3.516c0.041-3.817-0.006-7.636,0.021-11.453c0.019-2.755,1.276-3.979,4.033-3.987
	c4.004-0.012,8.023,0.205,12.008-0.069c4.387-0.302,8.812-0.74,13.098-1.675c5.901-1.288,11.064-4.099,14.658-9.203
	c1.275-1.811,2.276-3.77,2.708-6.103c-0.712,0-1.268,0-1.823,0c-13.362,0-26.724,0-40.086-0.001c-0.559,0-1.12,0.013-1.674-0.039
	c-1.592-0.146-2.781-1.172-2.816-2.749c-0.086-3.766-0.086-7.537,0.003-11.302c0.037-1.537,1.159-2.518,2.697-2.692
	c0.645-0.074,1.299-0.088,1.949-0.088c12.85-0.005,25.7-0.004,38.55-0.004c0.538,0,1.076,0,1.847,0
	c-1.72-3.299-4.06-5.585-7.051-7.25c-5.433-3.023-11.378-3.946-17.463-4.098c-5.491-0.137-10.987-0.049-16.48-0.07
	c-2.898-0.011-4.149-1.254-4.161-4.164c-0.018-3.957,0.038-7.916-0.022-11.872c-0.028-1.871,0.607-3.244,2.342-4.036
	C334.608,451.14,363.484,451.14,392.362,451.14z"/>
<path fill="#85C773" d="M524.757,392.962c12.348,0,23.425,19.887,23.425,39.544c0,15.238,0.137,22.358-7.761,30.053
	c-2.504,2.44-5.197,4.911-7.639,6.799c-1.051,1.376-2.098,3.335-2.199,5.797l-0.761,23.747l5.122,107.889
	c0.004,0.025,0.015,0.051,0.015,0.076c0,1.254-3.769,2.27-8.417,2.27c-4.65,0-8.418-1.016-8.418-2.27
	c0-0.021,0.01-0.045,0.013-0.068l3.995-108.264l0.197-23.399c0,0,0.24-2.48-2.215-5.778c-2.212-1.599-5.535-3.321-7.501-6.026
	c-4.356-5.989-9.148-16.552-9.148-30.826C503.465,412.849,512.408,392.962,524.757,392.962z"/>
<path fill="#85C773" d="M177.154,405.702l-0.331,43.231c-0.005,0.004-0.007,0.007-0.009,0.011c-0.011,0.846-0.699,1.528-1.546,1.528
	c-0.802,0-1.457-0.615-1.531-1.398c-0.013-0.02-0.02-0.03-0.02-0.03l-0.774-43.342c0.168-3.502-1.792-4.228-1.792-4.228
	c-2.033,0.725-1.977,4.339-1.977,4.339l-1.662,43.34c-0.009,0.028-0.02,0.047-0.028,0.076c0,0.002,0.002,0.004,0.002,0.008
	c0,0.434-0.23,0.798-0.559,1.021c-0.175,0.161-0.355,0.214-0.532,0.198c-0.043,0.005-0.08,0.025-0.125,0.025
	c-0.671,0-1.215-0.558-1.215-1.244c0-0.037,0.017-0.066,0.019-0.103l1.106-43.543c-1.418-7.819-3.738-0.199-3.738-0.199
	l-2.106,20.466l-3.024,32.386c-0.157,1.675-0.375,3.798-0.164,5.771c0.136,1.252,0.443,2.441,1.05,3.416
	c1.026,1.648,2.662,2.232,4.102,3.34c0.002,0.003,3.878,2.992,3.878,2.992c3.549,2.771,2.994,5.986,2.994,5.986l-4.283,135
	c-0.002,0.021-0.012,0.043-0.012,0.066c0,1.273,3.835,2.305,8.563,2.305c4.727,0,8.561-1.031,8.561-2.305
	c0-0.041-0.013-0.082-0.022-0.119l-3.049-135.059c0.704-4.801,4.801-6.896,4.801-6.896l2.514-1.638
	c4.436-2.327,4.726-6.555,4.726-6.555c0-1.923,0.138-3.958,0.148-5.921c0.022-3.52-0.278-7.013-0.488-10.524
	c-0.258-4.275-0.542-8.553-0.834-12.825c-0.316-4.609-0.598-9.219-0.886-13.83c-0.232-3.704-0.473-7.408-0.703-11.112
	c-0.095-1.502-0.194-3.005-0.291-4.506c-2.54-8.202-3.999,0.206-3.999,0.206l0.886,43.12c-0.006,0.009-0.013,0.015-0.02,0.022
	c-0.06,0.765-0.692,1.37-1.475,1.37c-0.82,0-1.487-0.667-1.487-1.486c0-0.019,0.004-0.035,0.007-0.052
	c-0.011-0.043-0.02-0.074-0.02-0.074l-0.774-43.01C178.843,395.74,177.154,405.702,177.154,405.702z"/>
<line fill="#265B85" stroke="#265B85" stroke-width="10" stroke-miterlimit="10" x1="603.108" y1="384.734" x2="603.108" y2="649.471"/>
</svg>
